<?xml version="1.0" encoding="utf-8"?>
<!-- Generator: Adobe Illustrator 28.1.0, SVG Export Plug-In . SVG Version: 6.00 Build 0)  -->
<svg version="1.1" id="apple-icon-svg" xmlns="http://www.w3.org/2000/svg" xmlns:xlink="http://www.w3.org/1999/xlink" x="0px" y="0px"
	 viewBox="0 0 24 24" style="enable-background:new 0 0 24 24;" xml:space="preserve">
<style type="text/css">
	
</style>
<path class="icon-svg" d="M12,0C5.4,0,0,5.4,0,12s5.4,12,12,12s12-5.4,12-12S18.6,0,12,0z M12.7,6.4c0.5-0.6,1.3-1,2-1
	C14.8,6.2,14.5,7,14,7.5c-0.5,0.6-1.3,1-2,0.9C11.9,7.7,12.3,6.9,12.7,6.4z M16.6,16.9c-0.6,0.8-1.2,1.6-2.1,1.6
	c-0.9,0-1.2-0.5-2.3-0.5s-1.4,0.5-2.2,0.5c-0.9,0-1.6-0.9-2.2-1.7c-1.2-1.6-2.1-4.6-0.9-6.6c0.6-1,1.7-1.6,2.8-1.6
	c0.9,0,1.7,0.6,2.3,0.6s1.6-0.7,2.6-0.6c0.4,0,1.7,0.2,2.5,1.3c-0.1,0-1.5,0.8-1.5,2.5c0,2,1.8,2.7,1.8,2.7
	C17.6,15.1,17.3,16,16.6,16.9z"/>
</svg>
