<?xml version="1.0" encoding="UTF-8"?><svg id="a" xmlns="http://www.w3.org/2000/svg" viewBox="0 0 24 24"><defs><style>.b{fill:#010101;fill-rule:evenodd;}.b,.c{stroke-width:0px;}.c{fill:#fff;}</style></defs><path class="b" d="M12,0C5.37,0,0,5.37,0,12s5.37,12,12,12,12-5.37,12-12S18.63,0,12,0ZM18.6,10.73c-.97-.02-1.87-.25-2.69-.63h0c-.37-.19-.69-.37-.99-.57,0,1.84.01,3.69,0,5.53-.05.94-.36,1.79-.85,2.5-.84,1.19-2.19,1.98-3.73,2.03h-.22c-.88,0-1.7-.24-2.39-.67-1.26-.76-2.13-2.07-2.29-3.58v-.02c-.02-.31-.02-.63-.01-.94.25-2.42,2.28-4.29,4.74-4.29.27,0,.53.02.78.07.02.94-.02,1.87-.02,2.8-.22-.08-.46-.12-.72-.12-.95,0-1.75.6-2.05,1.45h0c-.07.23-.11.48-.11.73,0,.11,0,.2.02.3.17,1.04,1.05,1.82,2.13,1.82h.09c.74-.03,1.38-.42,1.74-1.01h0c.14-.2.23-.43.26-.68.04-.69.05-1.39.05-2.08v-1.31c0-2.55-.01-5.1.01-7.64.83-.01,1.65,0,2.48-.01.02,1.03.44,1.95,1.1,2.64.72.64,1.65,1.06,2.67,1.13h.02v2.55Z"/><polygon class="c" points="10.96 10.16 10.93 10.16 10.93 10.15 10.96 10.16"/></svg>