<?xml version="1.0" encoding="UTF-8"?><svg id="a" xmlns="http://www.w3.org/2000/svg" viewBox="0 0 1000 477.05"><defs><style>.b{fill:#231f20;stroke-width:0px;}</style></defs><rect class="b" x="0" y="218.03" width="1000" height="15"/><path class="b" d="M56.5,23.29H0V2.89h137.54v20.4h-56.78v165.38h-24.26V23.29Z"/><path class="b" d="M188.36,130.24l-19.29,58.43h-24.81L207.38,2.89h28.94l63.4,185.78h-25.63l-19.85-58.43h-65.88ZM249.27,111.49l-18.19-53.47c-4.13-12.13-6.89-23.15-9.65-33.9h-.55c-2.76,11.03-5.79,22.33-9.37,33.63l-18.19,53.75h55.95Z"/><path class="b" d="M328.18,2.89h23.98v165.66h79.38v20.12h-103.36V2.89Z"/><path class="b" d="M484,2.89v185.78h-23.98V2.89h23.98Z"/><path class="b" d="M608.66,101.57h-72.22v66.98h80.49v20.12h-104.46V2.89h100.33v20.12h-76.35v58.71h72.22v19.85Z"/><path class="b" d="M651.46,159.59c10.75,6.62,26.46,12.13,43,12.13,24.53,0,38.86-12.95,38.86-31.7,0-17.37-9.92-27.29-35-36.94-30.32-10.75-49.06-26.46-49.06-52.65,0-28.94,23.98-50.44,60.09-50.44,19.02,0,32.8,4.41,41.07,9.1l-6.62,19.57c-6.06-3.31-18.47-8.82-35.28-8.82-25.36,0-35.01,15.16-35.01,27.84,0,17.37,11.3,25.91,36.93,35.83,31.42,12.13,47.41,27.29,47.41,54.58,0,28.67-21.22,53.47-65.05,53.47-17.92,0-37.49-5.24-47.41-11.85l6.06-20.12Z"/><path class="b" d="M810.31,2.89v185.78h-23.98V2.89h23.98Z"/><path class="b" d="M860.53,188.67V2.89h26.19l59.54,93.99c13.78,21.77,24.53,41.34,33.35,60.36l.55-.28c-2.21-24.81-2.76-47.41-2.76-76.35V2.89h22.6v185.78h-24.26l-58.99-94.27c-12.96-20.67-25.36-41.9-34.73-62.02l-.83.28c1.38,23.43,1.93,45.76,1.93,76.63v79.38h-22.6Z"/><path class="b" d="M0,341.11v-93.01h13.11l29.81,47.06c6.9,10.9,12.28,20.7,16.7,30.22l.28-.14c-1.1-12.42-1.38-23.74-1.38-38.23v-38.92h11.32v93.01h-12.14l-29.53-47.2c-6.49-10.35-12.7-20.98-17.39-31.05l-.41.14c.69,11.73.97,22.91.97,38.36v39.74H0Z"/><path class="b" d="M138.96,297.5h-36.16v33.53h40.3v10.07h-52.3v-93.01h50.23v10.07h-38.23v29.39h36.16v9.94Z"/><path class="b" d="M175.11,341.11l-23.6-93.01h12.7l11.04,47.06c2.76,11.59,5.24,23.18,6.9,32.15h.28c1.52-9.25,4.42-20.29,7.59-32.29l12.42-46.92h12.56l11.32,47.2c2.62,11.04,5.11,22.08,6.49,31.88h.28c1.93-10.21,4.55-20.56,7.45-32.15l12.28-46.92h12.28l-26.36,93.01h-12.56l-11.73-48.44c-2.9-11.87-4.83-20.98-6.07-30.36h-.28c-1.66,9.25-3.73,18.35-7.18,30.36l-13.25,48.44h-12.56Z"/><path class="b" d="M673.65,326.48c5.38,3.31,13.25,6.07,21.53,6.07,12.28,0,19.46-6.49,19.46-15.87,0-8.69-4.97-13.66-17.53-18.49-15.18-5.38-24.56-13.25-24.56-26.36,0-14.49,12.01-25.25,30.08-25.25,9.52,0,16.42,2.21,20.56,4.55l-3.31,9.8c-3.04-1.66-9.25-4.42-17.66-4.42-12.7,0-17.53,7.59-17.53,13.94,0,8.69,5.66,12.97,18.49,17.94,15.73,6.07,23.74,13.66,23.74,27.32,0,14.35-10.63,26.77-32.57,26.77-8.97,0-18.77-2.62-23.74-5.93l3.04-10.07Z"/><path class="b" d="M822.82,293.64c0,32.02-19.46,48.99-43.19,48.99s-41.81-19.04-41.81-47.2c0-29.53,18.35-48.85,43.19-48.85s41.81,19.46,41.81,47.06ZM750.65,295.16c0,19.87,10.76,37.67,29.67,37.67s29.81-17.53,29.81-38.64c0-18.49-9.66-37.81-29.67-37.81s-29.81,18.35-29.81,38.78Z"/><path class="b" d="M838.41,341.11v-93.01h13.11l29.81,47.06c6.9,10.9,12.28,20.7,16.7,30.22l.28-.14c-1.1-12.42-1.38-23.74-1.38-38.23v-38.92h11.32v93.01h-12.14l-29.53-47.2c-6.49-10.35-12.7-20.98-17.39-31.05l-.41.14c.69,11.73.97,22.91.97,38.36v39.74h-11.32Z"/><path class="b" d="M1000,336.97c-5.38,1.93-16.01,5.11-28.57,5.11-14.08,0-25.67-3.59-34.78-12.28-8-7.73-12.97-20.15-12.97-34.64.14-27.74,19.18-48.02,50.37-48.02,10.76,0,19.18,2.35,23.18,4.28l-2.9,9.8c-4.97-2.21-11.18-4-20.56-4-22.63,0-37.4,14.08-37.4,37.4s14.21,37.54,35.88,37.54c7.87,0,13.25-1.1,16.01-2.48v-27.74h-18.91v-9.66h30.64v44.71Z"/><path class="b" d="M85.01,428.06c0,32.02-19.46,48.99-43.19,48.99S0,458,0,429.85c0-29.53,18.35-48.85,43.19-48.85s41.81,19.46,41.81,47.06ZM12.84,429.58c0,19.87,10.76,37.67,29.67,37.67s29.81-17.53,29.81-38.64c0-18.49-9.66-37.81-29.67-37.81s-29.81,18.35-29.81,38.78Z"/><path class="b" d="M112.61,382.52v55.06c0,20.84,9.25,29.67,21.67,29.67,13.8,0,22.63-9.11,22.63-29.67v-55.06h12.14v54.23c0,28.57-15.04,40.3-35.19,40.3-19.04,0-33.4-10.9-33.4-39.74v-54.79h12.14Z"/><path class="b" d="M207.55,392.73h-28.29v-10.21h68.86v10.21h-28.43v82.8h-12.14v-82.8Z"/><path class="b" d="M708.97,475.53v-93.01h13.11l29.81,47.06c6.9,10.9,12.28,20.7,16.7,30.22l.28-.14c-1.1-12.42-1.38-23.74-1.38-38.23v-38.92h11.32v93.01h-12.14l-29.53-47.2c-6.49-10.35-12.7-20.98-17.39-31.05l-.41.14c.69,11.73.97,22.91.97,38.36v39.74h-11.32Z"/><path class="b" d="M879.26,428.06c0,32.02-19.46,48.99-43.19,48.99s-41.81-19.04-41.81-47.2c0-29.53,18.35-48.85,43.19-48.85s41.81,19.46,41.81,47.06ZM807.08,429.58c0,19.87,10.76,37.67,29.67,37.67s29.81-17.53,29.81-38.64c0-18.49-9.66-37.81-29.67-37.81s-29.81,18.35-29.81,38.78Z"/><path class="b" d="M910.03,475.53l-23.6-93.01h12.7l11.04,47.06c2.76,11.59,5.24,23.18,6.9,32.15h.28c1.52-9.25,4.42-20.29,7.59-32.29l12.42-46.92h12.56l11.32,47.2c2.62,11.04,5.11,22.08,6.49,31.88h.28c1.93-10.21,4.55-20.56,7.45-32.15l12.28-46.92h12.28l-26.36,93.01h-12.56l-11.73-48.44c-2.9-11.87-4.83-20.98-6.07-30.36h-.28c-1.66,9.25-3.73,18.35-7.18,30.36l-13.25,48.44h-12.56Z"/></svg>