<?xml version="1.0" encoding="UTF-8"?><svg id="a" xmlns="http://www.w3.org/2000/svg" width="1000" height="1000" viewBox="0 0 1000 1000"><defs><style>.b{fill:#fff;}.b,.c{stroke-width:0px;}.c{fill:#231f20;}</style></defs><rect class="c" width="1000" height="1000"/><path class="b" d="M116.52,801.09c11.52-1.74,25.22-3.04,40.22-3.04,27.17,0,46.52,6.3,59.35,18.26,13.04,11.96,20.65,28.91,20.65,52.61s-7.39,43.48-21.09,56.96c-13.7,13.7-36.3,21.09-64.78,21.09-13.48,0-24.78-.65-34.35-1.74v-144.13ZM135.43,930.65c4.78.87,11.74,1.09,19.13,1.09,40.44,0,62.39-22.61,62.39-62.17.22-34.57-19.35-56.52-59.35-56.52-9.78,0-17.17.87-22.17,1.96v115.65Z"/><path class="b" d="M337.17,876.96h-56.96v52.83h63.48v15.87h-82.39v-146.52h79.13v15.87h-60.22v46.3h56.96v15.65Z"/><path class="b" d="M368.26,799.13h78.91v15.87h-60v48.7h55.43v15.65h-55.43v66.3h-18.91v-146.52Z"/><path class="b" d="M480.87,899.56l-15.22,46.09h-19.57l49.78-146.52h22.83l50,146.52h-20.22l-15.65-46.09h-51.96ZM528.92,884.78l-14.35-42.17c-3.26-9.57-5.43-18.26-7.61-26.74h-.44c-2.17,8.7-4.56,17.61-7.39,26.52l-14.35,42.39h44.13Z"/><path class="b" d="M603.05,799.13v86.74c0,32.83,14.57,46.74,34.13,46.74,21.74,0,35.65-14.35,35.65-46.74v-86.74h19.13v85.44c0,45-23.7,63.48-55.44,63.48-30,0-52.61-17.17-52.61-62.61v-86.3h19.13Z"/><path class="b" d="M724.79,799.13h18.91v130.65h62.61v15.87h-81.52v-146.52Z"/><path class="b" d="M836.09,815.22h-44.57v-16.09h108.48v16.09h-44.78v130.44h-19.13v-130.44Z"/></svg>