<?xml version="1.0" encoding="UTF-8"?><svg id="a" xmlns="http://www.w3.org/2000/svg" width="1000" height="1000" viewBox="0 0 1000 1000"><defs><style>.b{isolation:isolate;}.c{fill:#fff;}.c,.d{stroke-width:0px;}.d{fill:#231f20;}</style></defs><rect class="d" width="1000" height="1000"/><g class="b"><g class="b"><path class="c" d="M105.45,577.81v-155.61h31l36.83,110.18c3.4,10.26,5.87,17.94,7.43,23.03,1.77-5.66,4.53-13.97,8.28-24.94l37.26-108.27h27.7v155.61h-19.85v-130.24l-45.22,130.24h-18.58l-45.01-132.47v132.47h-19.85Z"/><path class="c" d="M290.68,577.81v-155.61h20.59v155.61h-20.59Z"/><path class="c" d="M347.57,577.81v-155.61h53.6c12.1,0,21.34.74,27.7,2.23,8.92,2.05,16.52,5.77,22.82,11.15,8.21,6.94,14.35,15.8,18.42,26.59,4.07,10.79,6.1,23.12,6.1,36.99,0,11.82-1.38,22.29-4.14,31.42-2.76,9.13-6.3,16.68-10.61,22.66-4.32,5.98-9.04,10.69-14.17,14.12-5.13,3.43-11.32,6.03-18.58,7.8-7.25,1.77-15.59,2.65-25,2.65h-56.15ZM368.16,559.44h33.22c10.26,0,18.31-.96,24.15-2.87,5.84-1.91,10.49-4.6,13.96-8.07,4.88-4.88,8.69-11.45,11.41-19.69,2.72-8.24,4.09-18.24,4.09-29.99,0-16.28-2.67-28.78-8.01-37.52-5.34-8.74-11.84-14.59-19.48-17.57-5.52-2.12-14.4-3.18-26.64-3.18h-32.69v118.89Z"/><path class="c" d="M504.56,577.81v-155.61h53.6c12.1,0,21.33.74,27.7,2.23,8.92,2.05,16.52,5.77,22.82,11.15,8.21,6.94,14.35,15.8,18.42,26.59,4.07,10.79,6.1,23.12,6.1,36.99,0,11.82-1.38,22.29-4.14,31.42-2.76,9.13-6.3,16.68-10.61,22.66-4.32,5.98-9.04,10.69-14.17,14.12-5.13,3.43-11.32,6.03-18.58,7.8-7.25,1.77-15.59,2.65-25,2.65h-56.15ZM525.16,559.44h33.22c10.26,0,18.31-.96,24.15-2.87s10.49-4.6,13.96-8.07c4.88-4.88,8.69-11.45,11.41-19.69,2.72-8.24,4.09-18.24,4.09-29.99,0-16.28-2.67-28.78-8.01-37.52-5.34-8.74-11.84-14.59-19.48-17.57-5.52-2.12-14.4-3.18-26.64-3.18h-32.69v118.89Z"/><path class="c" d="M660.71,577.81v-155.61h20.59v137.25h76.64v18.36h-97.23Z"/><path class="c" d="M782.88,577.81v-155.61h112.52v18.36h-91.92v47.66h86.09v18.26h-86.09v52.97h95.53v18.36h-116.12Z"/></g></g></svg>