<?xml version="1.0" encoding="utf-8"?>
<!-- Generator: Adobe Illustrator 28.1.0, SVG Export Plug-In . SVG Version: 6.00 Build 0)  -->
<svg version="1.1" id="icon" xmlns="http://www.w3.org/2000/svg" xmlns:xlink="http://www.w3.org/1999/xlink" x="0px" y="0px"
	 viewBox="0 0 480 480" enable-background="new 0 0 480 480" xml:space="preserve">
<g id="apple-icon">
	<path d="M317.054,76.946c-18.321,21.984-47.633,36.641-73.283,32.978c-3.663-25.649,10.992-54.962,25.649-73.283
		C287.741,14.655,317.054,0,342.703,0C346.366,29.313,335.374,58.625,317.054,76.946z"/>
	<path d="M412.32,421.375C390.336,450.687,368.352,480,335.374,480s-43.97-18.321-84.275-18.321
		c-40.307,0-51.299,18.321-80.611,18.321c-32.978,0-58.625-32.978-80.611-62.291c-43.97-58.625-76.946-168.549-32.976-241.832
		c21.984-36.641,62.288-58.627,102.595-58.627c32.976,0,62.291,21.986,84.275,21.986s58.625-25.649,95.266-21.986
		c14.657,0,62.291,7.329,91.603,47.635c-3.663,0-54.962,29.313-54.962,91.603c0,73.283,65.956,98.93,65.956,98.93
		C448.961,355.419,437.969,388.397,412.32,421.375z"/>
</g>
</svg>
