<?xml version="1.0" encoding="utf-8"?>
<!-- Generator: Adobe Illustrator 28.1.0, SVG Export Plug-In . SVG Version: 6.00 Build 0)  -->
<svg version="1.1" id="icon-svg" xmlns="http://www.w3.org/2000/svg" xmlns:xlink="http://www.w3.org/1999/xlink" x="0px" y="0px"
	 viewBox="0 0 480 480" enable-background="new 0 0 480 480" xml:space="preserve">
<g>
	<path d="M478.629,140.76C474.856,53.675,426.171,5.331,339.086,1.217C313.372-0.154,305.485-0.154,240-0.154
		s-73.372,0.343-99.086,1.371C53.829,5.331,5.485,53.675,1.371,140.76C0,166.474,0,174.361,0,239.846s0.343,73.372,1.371,99.086
		c4.114,87.085,52.458,135.429,139.543,139.543c25.714,1.371,33.943,1.371,99.086,1.371s73.372-0.343,99.086-1.371
		c87.085-4.114,135.77-52.115,139.543-139.543C480,313.218,480,305.331,480,239.846S479.657,166.474,478.629,140.76z
		 M435.429,336.875c-3.087,64.457-33.258,95.313-98.4,98.4c-25.371,1.371-32.915,1.371-97.029,1.371s-71.658-0.343-97.029-1.371
		c-65.142-3.087-95.313-33.943-98.4-98.4C43.2,311.504,43.2,303.96,43.2,239.846s0.343-71.658,1.371-97.029
		c3.087-64.457,33.258-95.313,98.4-98.4c25.371-1.371,32.915-1.371,97.029-1.371s71.658,0.343,97.029,1.371
		c65.142,3.087,95.313,33.943,98.4,98.4c1.371,25.371,1.371,32.915,1.371,97.029S436.456,311.504,435.429,336.875z"/>
	<path d="M397.029,111.618c0,15.77-13.029,28.799-28.801,28.799c-15.77,0-28.799-13.029-28.799-28.799
		c0-15.772,13.029-28.801,28.799-28.801C384,82.817,397.029,95.846,397.029,111.618z"/>
	<path d="M240,116.76c-68.228,0-123.428,54.858-123.428,123.087S172.115,363.274,240,363.274
		c68.228,0,123.428-55.543,123.428-123.428S308.228,116.76,240,116.76z M240,319.732c-43.887,0-79.886-35.658-79.886-79.886
		s36-79.886,79.886-79.886s79.886,35.658,79.886,79.886S283.887,319.732,240,319.732z"/>
</g>
</svg>
