<?xml version="1.0" encoding="utf-8"?>
<!-- Generator: Adobe Illustrator 28.1.0, SVG Export Plug-In . SVG Version: 6.00 Build 0)  -->
<svg version="1.1" id="icon-svg" xmlns="http://www.w3.org/2000/svg" xmlns:xlink="http://www.w3.org/1999/xlink" x="0px" y="0px"
	 viewBox="0 0 480 480" enable-background="new 0 0 480 480" xml:space="preserve">
<g>
	<path fill-rule="evenodd" clip-rule="evenodd" d="M387.615,389.012h-0.281c-6.179,9.831-19.101,13.203-28.933,7.022
		c-79.212-48.314-178.652-59.269-296.067-32.584c-11.235,2.527-22.472-4.495-25-15.73c-2.527-11.237,4.495-22.473,15.73-25.282
		c128.371-29.494,238.485-16.853,327.53,37.641C390.423,366.259,393.512,379.181,387.615,389.012z"/>
	<path fill-rule="evenodd" clip-rule="evenodd" d="M428.625,297.157c-7.583,12.36-23.876,16.293-36.235,8.708
		c-90.73-55.618-228.652-71.91-335.956-39.325c-13.764,4.212-28.651-3.652-32.865-17.416c-4.212-13.764,3.652-28.652,17.416-32.866
		c122.473-37.077,274.72-19.101,378.653,44.945C431.997,268.788,435.928,284.798,428.625,297.157z"/>
	<path fill-rule="evenodd" clip-rule="evenodd" d="M475.536,190.697c-8.989,14.888-28.09,19.944-43.26,10.955
		c-108.708-64.607-287.922-70.506-391.574-39.045c-16.572,5.056-34.269-4.214-39.325-21.067
		c-5.056-16.574,4.212-34.269,21.067-39.327C141.546,65.978,339.299,73,464.581,147.439
		C479.469,156.428,484.525,175.809,475.536,190.697z"/>
</g>
</svg>
