<?xml version="1.0" encoding="utf-8"?>
<!-- Generator: Adobe Illustrator 28.1.0, SVG Export Plug-In . SVG Version: 6.00 Build 0)  -->
<svg version="1.1" id="icon-svg" xmlns="http://www.w3.org/2000/svg" xmlns:xlink="http://www.w3.org/1999/xlink" x="0px" y="0px"
	 viewBox="0 0 480 480" enable-background="new 0 0 480 480" xml:space="preserve">
<path id="icon-1" fill-rule="evenodd" clip-rule="evenodd" d="M448.641,119.21v80.632h-0.633
	c-30.671-0.631-59.13-7.905-85.059-19.921c-11.699-6.008-21.818-11.699-31.304-18.022c0,58.181,0.317,116.678,0,174.86
	c-1.581,29.723-11.383,56.6-26.877,79.051c-26.562,37.628-69.249,62.608-117.944,64.19h-6.958c-27.826,0-53.755-7.591-75.573-21.187
	c-39.842-24.032-67.352-65.455-72.41-113.2v-0.633c-0.633-9.802-0.633-19.921-0.317-29.723
	c7.905-76.521,72.096-135.651,149.881-135.651c8.222,0,16.443,0.631,24.032,2.212h0.633c0.631,29.723-0.633,59.132-0.633,88.539
	c-6.956-2.53-14.546-3.794-22.766-3.794c-30.04,0-55.336,18.971-64.823,45.848c-2.212,7.274-3.478,15.179-3.478,23.084
	c0,3.478,0,6.323,0.633,9.486c5.375,32.885,33.201,57.549,67.352,57.549h2.845c23.401-0.95,43.636-13.282,55.021-31.937
	c4.425-6.324,7.272-13.597,8.22-21.502c1.266-21.818,1.583-43.953,1.583-65.771v-41.423c0-80.632-0.317-161.263,0.315-241.581
	C276.626,0,302.555,0.317,328.8,0c0.631,32.57,13.913,61.66,34.782,83.478c22.768,20.238,52.174,33.518,84.426,35.731H448.641z"/>
</svg>
